# xmcd
#
# Track frame offsets: 
#        150
#        25262
#        43330
#        68707
#        83430
#        97742
#        112850
#        126275
#        157485
#        182377
#        217045
#        244932
#        273042
#        296965
#        321590
#
# Disc length: 4507 seconds
#
# Revision: 10
# Processed by: cddbd v1.5.2PL0 Copyright (c) Steve Scherf et al.
# Submitted via: ExactAudioCopyFreeDBPlugin 1.0
#
DISCID=d911990f
DTITLE=The Isley Brothers - It's Your Thing:  The Story of The Isley B
DTITLE=rothers
DYEAR=1999
DGENRE=Rhythm and Blues
TTITLE0=That Lady (Parts 1 and 2)
TTITLE1=Don't Let Me Be Lonely Tonight
TTITLE2=For the Love of You (Parts 1 and 2)
TTITLE3=Brother, Brother
TTITLE4=Work to Do
TTITLE5=Lay Away
TTITLE6=Cold Bologna
TTITLE7=Midnight Sky (Parts 1 and 2)
TTITLE8=Hello It's Me
TTITLE9=Make Me Say it Again Girl (Parts 1 and 2)
TTITLE10=Summer Breeze
TTITLE11=Live it Up (Parts 1 and 2)
TTITLE12=Fight the Power (Parts 1 and 2)
TTITLE13=Fire and Rain
TTITLE14=Love the One You're With
EXTD=
EXTT0=
EXTT1=
EXTT2=
EXTT3=
EXTT4=
EXTT5=
EXTT6=
EXTT7=
EXTT8=
EXTT9=
EXTT10=
EXTT11=
EXTT12=
EXTT13=
EXTT14=
PLAYORDER=
